<svg xmlns="http://www.w3.org/2000/svg" width="539.467" height="419.794" viewBox="0 0 539.467 419.794">
    <g id="Group_2" data-name="Group 2" transform="matrix(1, 0.017, -0.017, 1, 6.02, 0)">
        <path id="Path_28" data-name="Path 28" d="M450.246,129.742H209.054a30.879,30.879,0,0,0-30.844,30.845V443.795a30.879,30.879,0,0,0,30.844,30.845H450.246a30.879,30.879,0,0,0,30.845-30.845V160.586A30.879,30.879,0,0,0,450.246,129.742Z" transform="translate(-178.21 -129.742)" fill="#f2f2f2"/>
        <path id="Path_29" data-name="Path 29" d="M455.221,143.6H214.029a21.99,21.99,0,0,0-21.965,21.965V448.77a21.99,21.99,0,0,0,21.965,21.965H455.221a21.99,21.99,0,0,0,21.965-21.965V165.561A21.99,21.99,0,0,0,455.221,143.6Z" transform="translate(-183.185 -134.716)" fill="#fff"/>
        <path id="Path_30" data-name="Path 30" d="M474.807,266.326H352.838a5.136,5.136,0,0,1,0-10.273H474.807a5.136,5.136,0,0,1,0,10.273Z" transform="translate(-239.071 -175.097)" fill="#f2f2f2"/>
        <path id="Path_31" data-name="Path 31" d="M496,293.374H352.838a5.136,5.136,0,0,1,0-10.273H496a5.136,5.136,0,0,1,0,10.273Z" transform="translate(-239.071 -184.809)" fill="#f2f2f2"/>
        <path id="Path_32" data-name="Path 32" d="M474.807,387.54H352.838a5.136,5.136,0,0,1,0-10.273H474.807a5.136,5.136,0,0,1,0,10.273Z" transform="translate(-239.071 -218.622)" fill="#f2f2f2"/>
        <path id="Path_33" data-name="Path 33" d="M496,414.588H352.838a5.136,5.136,0,1,1,0-10.273H496a5.136,5.136,0,0,1,0,10.273Z" transform="translate(-239.071 -228.334)" fill="#f2f2f2"/>
        <path id="Path_34" data-name="Path 34" d="M474.807,508.753H352.838a5.136,5.136,0,1,1,0-10.273H474.807a5.136,5.136,0,1,1,0,10.273Z" transform="translate(-239.071 -262.146)" fill="#f2f2f2"/>
        <path id="Path_35" data-name="Path 35" d="M496,535.8H352.838a5.136,5.136,0,1,1,0-10.273H496a5.136,5.136,0,0,1,0,10.273Z" transform="translate(-239.071 -271.859)" fill="#f2f2f2"/>
        <path id="Path_36" data-name="Path 36" d="M287.525,287.122H244.362a2.466,2.466,0,0,1-2.463-2.463V246.237a2.466,2.466,0,0,1,2.463-2.463h43.164a2.466,2.466,0,0,1,2.463,2.463v38.422A2.466,2.466,0,0,1,287.525,287.122Z" transform="translate(-201.08 -170.688)" fill="#e6e6e6"/>
        <path id="Path_37" data-name="Path 37" d="M287.525,408.336H244.362a2.466,2.466,0,0,1-2.463-2.463V367.451a2.466,2.466,0,0,1,2.463-2.463h43.164a2.466,2.466,0,0,1,2.463,2.463v38.422A2.466,2.466,0,0,1,287.525,408.336Z" transform="translate(-201.08 -214.213)" fill="#e6e6e6"/>
        <path id="Path_38" data-name="Path 38" d="M287.525,529.549H244.362a2.466,2.466,0,0,1-2.463-2.463V488.664a2.466,2.466,0,0,1,2.463-2.463h43.164a2.466,2.466,0,0,1,2.463,2.463v38.422A2.466,2.466,0,0,1,287.525,529.549Z" transform="translate(-201.08 -257.737)" fill="#e6e6e6"/>
        <path id="Path_39" data-name="Path 39" d="M777.752,448.706l1.913-16.734,9.594-83.9,1.913-16.734a30.879,30.879,0,0,0-27.141-34.149l-217.7-24.893a30.879,30.879,0,0,0-34.149,27.141l-.005.043L498.77,416.762l0,.043a30.879,30.879,0,0,0,27.141,34.149l217.7,24.893A30.879,30.879,0,0,0,777.752,448.706Z" transform="translate(-293.242 -180.857)" fill="#e6e6e6"/>
        <path id="Path_40" data-name="Path 40" d="M773.9,452.673l2.266-19.82,8.888-77.73,2.266-19.82A21.99,21.99,0,0,0,768,310.985L550.3,286.092a21.99,21.99,0,0,0-24.318,19.327l0,.043L512.566,422.745l0,.044a21.99,21.99,0,0,0,19.328,24.318L749.586,472A21.99,21.99,0,0,0,773.9,452.673Z" transform="translate(-298.217 -185.832)" fill="#fff"/>
        <path id="Path_41" data-name="Path 41" d="M794.363,366.658,673.183,352.8a5.136,5.136,0,0,1,1.167-10.206l121.18,13.857a5.136,5.136,0,0,1-1.167,10.206Z" transform="translate(-354.308 -206.16)" fill="#e6e6e6"/>
        <path id="Path_42" data-name="Path 42" d="M812.34,395.938,670.11,379.674a5.136,5.136,0,1,1,1.167-10.206l142.23,16.264a5.136,5.136,0,0,1-1.167,10.206Z" transform="translate(-353.205 -215.809)" fill="#e6e6e6"/>
        <path id="Path_43" data-name="Path 43" d="M768.358,445.212,558.667,421.234a5.136,5.136,0,1,1,1.167-10.206l209.691,23.978a5.136,5.136,0,0,1-1.167,10.206Z" transform="translate(-313.188 -230.732)" fill="#e6e6e6"/>
        <path id="Path_44" data-name="Path 44" d="M765.959,472.161,555.594,448.107a5.136,5.136,0,1,1,1.167-10.206l210.365,24.055a5.136,5.136,0,1,1-1.167,10.206Z" transform="translate(-312.085 -240.382)" fill="#e6e6e6"/>
        <path id="Path_45" data-name="Path 45" d="M762.336,497.869,552.646,473.891a5.136,5.136,0,1,1,1.167-10.206L763.5,487.663a5.136,5.136,0,1,1-1.167,10.206Z" transform="translate(-311.026 -249.64)" fill="#e6e6e6"/>
        <path id="Path_46" data-name="Path 46" d="M759.938,524.818,549.573,500.763a5.136,5.136,0,0,1,1.167-10.206L761.1,514.612a5.136,5.136,0,1,1-1.167,10.206Z" transform="translate(-309.923 -259.289)" fill="#e6e6e6"/>
        <path id="Path_47" data-name="Path 47" d="M603.664,365.883l-42.884-4.9a2.466,2.466,0,0,1-2.167-2.727l4.365-38.173a2.466,2.466,0,0,1,2.727-2.167l42.884,4.9a2.466,2.466,0,0,1,2.167,2.727l-4.365,38.173A2.466,2.466,0,0,1,603.664,365.883Z" transform="translate(-314.798 -197.303)" fill="#6c63ff"/>
        <path id="Path_48" data-name="Path 48" d="M941.793,769.382H801.431a.641.641,0,1,1,0-1.282H941.793a.641.641,0,0,1,0,1.282Z" transform="translate(-401.764 -358.96)" fill="#3f3d56"/>
        <path id="Path_49" data-name="Path 49" d="M938.453,385.486a6.01,6.01,0,0,0,5.4,7.47l4.342,13.029,8.561-.708-6.391-18.314a6.042,6.042,0,0,0-11.909-1.478Z" transform="translate(-451.129 -219.923)" fill="#ffb8b8"/>
        <path id="Path_50" data-name="Path 50" d="M947.382,477.84h0a7.745,7.745,0,0,0,12.805-4.053l6.781-31.068a30.685,30.685,0,0,0-.791-16.01l-7.936-24.468a2.564,2.564,0,0,0-3.586-1.5l-5.179,2.593a2.564,2.564,0,0,0-1.314,3.008l.522,1.8a86.334,86.334,0,0,1,.659,45.816l-4.218,16.235A7.745,7.745,0,0,0,947.382,477.84Z" transform="translate(-453.501 -226.953)" fill="#6c63ff"/>
        <path id="Path_51" data-name="Path 51" d="M722.186,614.067h-7.327L711.374,585.8h10.814Z" transform="translate(-255.437 -210.348)" fill="#ffb8b8"/>
        <path id="Path_52" data-name="Path 52" d="M703.659,626.633H717.79v8.9H694.762a8.9,8.9,0,0,1,8.9-8.9Z" transform="translate(-249.472 -225.009)" fill="#2f2e41"/>
        <path id="Path_53" data-name="Path 53" d="M783.807,614.067H776.48L772.995,585.8h10.814Z" transform="translate(-277.564 -210.348)" fill="#ffb8b8"/>
        <path id="Path_54" data-name="Path 54" d="M765.281,626.633h14.131v8.9H756.384a8.9,8.9,0,0,1,8.9-8.9Z" transform="translate(-271.599 -225.009)" fill="#2f2e41"/>
        <circle id="Ellipse_3" data-name="Ellipse 3" cx="15.742" cy="15.742" r="15.742" transform="translate(469.042 171.322)" fill="#ffb8b8"/>
        <path id="Path_55" data-name="Path 55" d="M850.581,573.082a6.01,6.01,0,0,1,7.75-4.986l8.8-10.546,7.713,3.783-12.633,14.719a6.043,6.043,0,0,1-11.628-2.97Z" transform="translate(-419.623 -283.357)" fill="#ffb8b8"/>
        <path id="Path_56" data-name="Path 56" d="M926.7,425.757a16.8,16.8,0,1,0-3.147-33.216,19.306,19.306,0,0,0-11.52-3.157c-4.034.36-8.023,2.755-9.532,6.513s.112,8.713,3.863,10.24c2.4.979,5.12.5,7.686.109s5.366-.653,7.6.672,3.237,4.875,1.237,6.53a6.883,6.883,0,0,0-1.977,7.576C921.917,423.625,924.661,425.713,926.7,425.757Z" transform="translate(-438.085 -222.953)" fill="#2f2e41"/>
        <path id="Path_57" data-name="Path 57" d="M940.813,580.251l2.792,105.97a2.564,2.564,0,0,1-2.693,2.628l-9.2-.469a2.564,2.564,0,0,1-2.4-2.158l-10.941-68.828a1.282,1.282,0,0,0-2.517-.078l-14.81,66.27a2.564,2.564,0,0,1-3.361,1.856l-9.129-.558a2.564,2.564,0,0,1-1.7-2.6l7.969-103.038Z" transform="translate(-432.665 -291.149)" fill="#2f2e41"/>
        <path id="Path_58" data-name="Path 58" d="M947.858,484.4c1.54-16.059-10.267-30.584-26.359-31.726-6.933-.492-17.7-.668-21.246,8.419-10.689,27.376,8.023,26.711,1.576,50.43s-12.141,25.078-3.3,26.791,48.625,11.823,46.991-4.871C944.522,523.185,946.322,500.422,947.858,484.4Z" transform="translate(-435.229 -245.633)" fill="#6c63ff"/>
        <path id="Path_59" data-name="Path 59" d="M894.207,461.281h0a7.745,7.745,0,0,1,10.443,8.446l-5.024,31.4a30.684,30.684,0,0,1-6.579,14.617l-16.318,19.884a2.564,2.564,0,0,1-3.887.089l-3.876-4.3a2.564,2.564,0,0,1-.126-3.28l1.141-1.482a86.334,86.334,0,0,0,17.334-42.416l2-16.654A7.745,7.745,0,0,1,894.207,461.281Z" transform="translate(-426.008 -248.602)" fill="#6c63ff"/>
    </g>
</svg>
