<svg xmlns="http://www.w3.org/2000/svg" width="76.614" height="61.947" viewBox="0 0 76.614 61.947">
  <path id="Path_19" data-name="Path 19" d="M351.988,282.977l-69.644-14.591-.905-.189a2.5,2.5,0,0,0-2.753,3.571l27.949,55.918a2.5,2.5,0,0,0,4.059.59l19.061-20.339a1.456,1.456,0,0,1,1.067-.474,1.506,1.506,0,0,1,1.345.771l3.972,7.244a2.445,2.445,0,0,0,2.745,1.238l.02,0a2.448,2.448,0,0,0,1.926-2.336l.687-16.78a1.53,1.53,0,0,1,.15-.6,1.629,1.629,0,0,1,.391-.489l11.012-9.15a2.5,2.5,0,0,0-1.083-4.376Zm.446,3.608-11.012,9.15a2.471,2.471,0,0,0-.387.4l-58.808-26.251a.876.876,0,0,0-.161-.056,1,1,0,0,0-.824,1.788l48.434,35.137a2.4,2.4,0,0,0-.65.5L309.964,327.59a1.5,1.5,0,0,1-2.436-.354l-27.949-55.918a1.5,1.5,0,0,1,1.652-2.141l.927.194,69.622,14.586a1.5,1.5,0,0,1,.654,2.627Z" transform="translate(-277.881 -267.626)" fill="#333245" stroke="#363549" stroke-width="1"/>
</svg>

