<svg xmlns="http://www.w3.org/2000/svg" width="321.765" height="264.152" viewBox="0 0 321.765 264.152">
    <g id="Group_1" data-name="Group 1" transform="translate(-0.001)" opacity="0.975">
        <path id="Path_1" data-name="Path 1" d="M747.516,579.167a15.768,15.768,0,0,0,15.226-2.682c5.333-4.476,7.005-11.851,8.366-18.679l4.024-20.2-8.425,5.8c-6.059,4.172-12.254,8.477-16.449,14.52s-6.026,14.291-2.656,20.83" transform="translate(-512.001 -361.704)" fill="#e6e6e6"/>
        <path id="Path_2" data-name="Path 2" d="M749.29,629.249c-.853-6.211-1.729-12.5-1.131-18.78a29.536,29.536,0,0,1,5.7-15.485A25.759,25.759,0,0,1,760.463,589c.661-.417,1.269.63.611,1.046a24.489,24.489,0,0,0-9.687,11.688c-2.109,5.364-2.448,11.212-2.084,16.91.22,3.446.686,6.87,1.155,10.289a.627.627,0,0,1-.423.745A.609.609,0,0,1,749.29,629.249Z" transform="translate(-513.055 -387.334)" fill="#f2f2f2"/>
        <path id="Path_3" data-name="Path 3" d="M767.034,635.033a11.607,11.607,0,0,0,10.113,5.22c5.12-.243,9.387-3.816,13.229-7.208l11.364-10.034-7.521-.36c-5.409-.259-10.957-.5-16.109,1.168s-9.9,5.682-10.845,11.014" transform="translate(-522.585 -404.108)" fill="#e6e6e6"/>
        <path id="Path_4" data-name="Path 4" d="M745.72,657.97c4.1-7.262,8.865-15.333,17.371-17.913a19.385,19.385,0,0,1,7.307-.754c.776.067.582,1.263-.192,1.2a18.008,18.008,0,0,0-11.66,3.085,30.306,30.306,0,0,0-8.014,8.648c-1.327,2.021-2.516,4.128-3.7,6.231C746.447,659.136,745.336,658.651,745.72,657.97Z" transform="translate(-511.895 -412.484)" fill="#f2f2f2"/>
        <path id="Path_5" data-name="Path 5" d="M489.243,492.9a31.076,31.076,0,0,1-30.008-5.286c-10.511-8.822-13.806-23.356-16.487-36.813L434.816,411l16.6,11.433c11.941,8.222,24.15,16.707,32.418,28.616s11.876,28.166,5.234,41.052" transform="translate(-356.572 -298.435)" fill="#e6e6e6"/>
        <path id="Path_6" data-name="Path 6" d="M517.014,591.609c1.681-12.241,3.409-24.64,2.23-37.012-1.047-10.988-4.4-21.72-11.224-30.52a50.771,50.771,0,0,0-13.026-11.8c-1.3-.822-2.5,1.242-1.2,2.061a48.266,48.266,0,0,1,19.092,23.036c4.157,10.572,4.824,22.1,4.108,33.327-.433,6.792-1.351,13.539-2.276,20.277a1.236,1.236,0,0,0,.833,1.468,1.2,1.2,0,0,0,1.468-.833Z" transform="translate(-385.763 -348.948)" fill="#f2f2f2"/>
        <path id="Path_7" data-name="Path 7" d="M440.091,603.007a22.876,22.876,0,0,1-19.932,10.287c-10.09-.479-18.5-7.521-26.074-14.207l-22.4-19.775,14.823-.709c10.66-.51,21.595-.986,31.748,2.3s19.517,11.2,21.373,21.708" transform="translate(-325.027 -382.007)" fill="#e6e6e6"/>
        <path id="Path_8" data-name="Path 8" d="M500.711,648.214c-8.089-14.312-17.471-30.219-34.235-35.3a38.2,38.2,0,0,0-14.4-1.487c-1.529.132-1.147,2.488.379,2.357a35.491,35.491,0,0,1,22.98,6.08c6.479,4.41,11.525,10.542,15.795,17.044,2.616,3.983,4.958,8.135,7.3,12.281C499.28,650.511,501.468,649.554,500.711,648.214Z" transform="translate(-364.71 -398.516)" fill="#f2f2f2"/>
        <path id="Path_9" data-name="Path 9" d="M351.988,282.977l-69.644-14.591-.905-.189a2.5,2.5,0,0,0-2.753,3.571l27.949,55.918a2.5,2.5,0,0,0,4.059.59l19.061-20.339a1.456,1.456,0,0,1,1.067-.474,1.506,1.506,0,0,1,1.345.771l3.972,7.244a2.445,2.445,0,0,0,2.745,1.238l.02,0a2.448,2.448,0,0,0,1.926-2.336l.687-16.78a1.53,1.53,0,0,1,.15-.6,1.629,1.629,0,0,1,.391-.489l11.012-9.15a2.5,2.5,0,0,0-1.083-4.376Zm.446,3.608-11.012,9.15a2.471,2.471,0,0,0-.387.4l-58.808-26.251a.876.876,0,0,0-.161-.056,1,1,0,0,0-.824,1.788l48.434,35.137a2.4,2.4,0,0,0-.65.5L309.964,327.59a1.5,1.5,0,0,1-2.436-.354l-27.949-55.918a1.5,1.5,0,0,1,1.652-2.141l.927.194,69.622,14.586a1.5,1.5,0,0,1,.654,2.627Z" transform="translate(-278.419 -227.048)" fill="#ccc"/>
        <path id="Path_10" data-name="Path 10" d="M351.988,282.977l-69.644-14.591-.905-.189a2.5,2.5,0,0,0-2.753,3.571l27.949,55.918a2.5,2.5,0,0,0,4.059.59l19.061-20.339a1.456,1.456,0,0,1,1.067-.474,1.506,1.506,0,0,1,1.345.771l3.972,7.244a2.445,2.445,0,0,0,2.745,1.238l.02,0a2.448,2.448,0,0,0,1.926-2.336l.687-16.78a1.53,1.53,0,0,1,.15-.6,1.629,1.629,0,0,1,.391-.489l11.012-9.15a2.5,2.5,0,0,0-1.083-4.376Zm.446,3.608-11.012,9.15a2.471,2.471,0,0,0-.387.4,2.327,2.327,0,0,0-.264.419,2.4,2.4,0,0,0-.179.477v0a2.37,2.37,0,0,0-.076.525l-.687,16.78a1.453,1.453,0,0,1-1.154,1.4l-.01,0a1.456,1.456,0,0,1-1.651-.738l-3.973-7.249a2.5,2.5,0,0,0-2.059-1.291h0c-.057,0-.114,0-.17,0a2.435,2.435,0,0,0-1.135.289,2.4,2.4,0,0,0-.65.5L309.964,327.59a1.5,1.5,0,0,1-2.436-.354l-27.949-55.918a1.5,1.5,0,0,1,1.652-2.141l.927.194,69.622,14.586a1.5,1.5,0,0,1,.654,2.627Z" transform="translate(-278.419 -227.048)" fill="#3f3d56"/>
        <path id="Path_11" data-name="Path 11" d="M343.655,297.877l-.408.914-.256-.111v0L284.229,272.45l49.149,35.662h0l.13.1-.585.81-.855-.621-48.434-35.137a1,1,0,0,1,.824-1.788.874.874,0,0,1,.161.056l58.808,26.251Z" transform="translate(-280.816 -228.697)" fill="#3f3d56"/>
        <path id="Path_12" data-name="Path 12" d="M706.259,464.02l2.542,24.849.05.51.755,7.369,6.2,60.675v.01l1.206,11.772a14.04,14.04,0,0,0-1.246,2.006,14.449,14.449,0,0,0,.42,13.833q4.54-1.141,8.955-2.6a134.9,134.9,0,0,0,17.77-7.284,14.464,14.464,0,0,0-4.858-8.43l-6.229-74.838-.545-6.564-1.776-21.307Z" transform="translate(-492.215 -324.93)" fill="#ffb8b8"/>
        <circle id="Ellipse_1" data-name="Ellipse 1" cx="32.893" cy="32.893" r="32.893" transform="translate(162.082 48.15) rotate(-45)" fill="#ffb8b8"/>
        <path id="Path_13" data-name="Path 13" d="M572.57,460.3c.005.065.01.13.015.19a6.036,6.036,0,0,0,4.718,5.383l49.088,10.721a6.079,6.079,0,0,0,1.3.14,6.017,6.017,0,0,0,5.8-4.418c.105-.39.22-.79.345-1.206v0a205.336,205.336,0,0,1,8.84-22.9q1.433-3.264,3.067-6.839c.2-.44.405-.886.606-1.331q3.369-7.317,7.519-15.839a39.422,39.422,0,0,0,3.047-8.72,39.866,39.866,0,0,0-2.016-23.829,39.365,39.365,0,0,0-2.176-4.478,40.051,40.051,0,0,0-31.688-20.167c-1.036-.085-2.066-.125-3.1-.125a40.272,40.272,0,0,0-27.761,11.266,39.309,39.309,0,0,0-9.761,15.3c-.13.365-.25.735-.37,1.106a148.874,148.874,0,0,0-4.443,17.87c-.665,3.587-1.206,7.124-1.641,10.571A218.1,218.1,0,0,0,572.57,460.3Z" transform="translate(-425.28 -276.388)" fill="#c6b5e3"/>
        <path id="Path_14" data-name="Path 14" d="M529.618,612.06a133.1,133.1,0,0,0,98.3,13.348q4.54-1.141,8.955-2.6A223.813,223.813,0,0,0,627.54,597.8v-.01C621.526,584.3,616,576.054,613.312,572.412a4.679,4.679,0,0,1-.665-4.247l.836-2.506a6.014,6.014,0,0,0-.986-5.643v-.005c-.055-.07-.115-.14-.175-.21-21.868-24.914-59.989-11.321-60.375-11.181l-.19.07-.12.165c-.13.18-.26.355-.385.54C540.915,563.877,534.046,586.14,529.618,612.06Z" transform="translate(-403.946 -365.293)" fill="#2f2e41"/>
        <path id="Path_15" data-name="Path 15" d="M412.06,347.784a14.1,14.1,0,0,1,.32,2.2l57.529,33.189,13.983-8.05L498.8,394.634l-23.37,16.657a10.714,10.714,0,0,1-12.854-.313l-59.323-46.8a14.058,14.058,0,1,1,8.806-16.394Z" transform="translate(-331.336 -261.424)" fill="#ffb8b8"/>
        <path id="Path_16" data-name="Path 16" d="M556.955,403.221v.005A6.006,6.006,0,0,0,558,405.3l9.815,12.717,4.678,6.068,4.1,5.313a6.025,6.025,0,0,0,9.11.5l14.9-15.469,6.149-6.389A16.737,16.737,0,1,0,586.227,381.6l-3.842,2.146-22.558,12.617a6.039,6.039,0,0,0-2.872,6.859Z" transform="translate(-417.499 -281.987)" fill="#c6b5e3"/>
        <path id="Path_17" data-name="Path 17" d="M686.951,424.534l.94,30.042,0,.19a6.025,6.025,0,0,0,7.094,5.743l4.072-.735,1.041-.19h0l3.382-.61,18.005-3.252,3.447-.62a6.032,6.032,0,0,0,4.638-7.859L719.87,418.49a16.735,16.735,0,1,0-32.919,6.043Z" transform="translate(-482.428 -295.324)" fill="#c7b6e3"/>
        <path id="Path_18" data-name="Path 18" d="M650.687,226.585c-8.454,5.786-19.555,11.734-28.189,5.572-5.67-4.046-7.456-11.538-5.157-18.113,4.135-11.823,15.494-17.029,26.357-21.019,14.121-5.187,29.5-9.313,44.075-5.6s27.461,17.829,24.83,32.641c-2.116,11.911-13.352,21.822-11.757,33.815,1.605,12.069,15.179,18.422,27.161,20.579s25.392,2.85,34,11.457c10.986,10.98,8.242,30.606-2.095,42.2s-25.936,16.848-41.052,20.42c-20.027,4.733-41.689,7.221-60.71-.634s-33.823-29-28.313-48.828c2.327-8.375,7.81-15.453,13.109-22.344s10.664-14.1,12.686-22.551c1.684-7.045.438-15.225-4.234-20.51a5.942,5.942,0,0,1-.8-6.946Z" transform="translate(-447.295 -186)" fill="#2f2e41"/>
    </g>
</svg>
